<?xml version="1.0" encoding="UTF-8"?>
<!DOCTYPE svg PUBLIC "-//W3C//DTD SVG 1.1//EN" "http://www.w3.org/Graphics/SVG/1.1/DTD/svg11.dtd">
<svg xmlns="http://www.w3.org/2000/svg" version="1.1" width="170px" height="135px" style="shape-rendering:geometricPrecision; text-rendering:geometricPrecision; image-rendering:optimizeQuality; fill-rule:evenodd; clip-rule:evenodd" xmlns:xlink="http://www.w3.org/1999/xlink">
<g><path style="opacity:1" fill="#f0eae6" d="M -0.5,-0.5 C 56.1667,-0.5 112.833,-0.5 169.5,-0.5C 169.5,44.5 169.5,89.5 169.5,134.5C 112.833,134.5 56.1667,134.5 -0.5,134.5C -0.5,89.5 -0.5,44.5 -0.5,-0.5 Z"/></g>
<g><path style="opacity:1" fill="#191818" d="M 105.5,12.5 C 122.624,27.3744 129.79,46.0411 127,68.5C 125.333,72.6656 122.499,75.6656 118.5,77.5C 117.833,77.1667 117.167,76.8333 116.5,76.5C 124.388,69.6668 127.222,61.0001 125,50.5C 121.9,38.1302 116.067,27.2969 107.5,18C 106.833,17.3333 106.167,17.3333 105.5,18C 102.931,20.4794 100.598,23.146 98.5,26C 97.365,26.7494 96.365,26.5827 95.5,25.5C 98.8574,21.148 102.191,16.8147 105.5,12.5 Z"/></g>
<g><path style="opacity:1" fill="#191818" d="M 79.5,18.5 C 82.3943,19.8823 84.8943,21.8823 87,24.5C 98.3783,37.9232 106.045,53.2565 110,70.5C 113.792,101.375 100.292,114.875 69.5,111C 66.3624,108.279 63.029,107.946 59.5,110C 43.7197,112.049 34.7197,105.216 32.5,89.5C 33.7637,77.8961 40.097,70.5627 51.5,67.5C 53.4948,59.8435 56.3282,52.5102 60,45.5C 65.5566,35.7831 72.0566,26.7831 79.5,18.5 Z"/></g>
<g><path style="opacity:1" fill="#ede7e3" d="M 79.5,22.5 C 81.371,22.8588 82.871,23.8588 84,25.5C 95.3382,38.1738 103.005,52.8405 107,69.5C 111.989,97.4462 100.489,110.613 72.5,109C 70.7795,108.261 69.1128,107.427 67.5,106.5C 73.478,100.732 75.978,93.7322 75,85.5C 74.586,85.0426 74.086,84.7093 73.5,84.5C 73.7508,98.0751 67.2508,106.075 54,108.5C 38.5103,105.678 32.8436,96.6781 37,81.5C 42.3572,72.5762 50.1905,69.2428 60.5,71.5C 60.5,70.5 60.5,69.5 60.5,68.5C 58.8333,68.5 57.1667,68.5 55.5,68.5C 56.1512,61.0456 58.3178,54.0456 62,47.5C 67.3506,38.7878 73.1839,30.4545 79.5,22.5 Z"/></g>
<g><path style="opacity:1" fill="#181817" d="M 72.5,73.5 C 73.4972,73.4701 74.1639,73.9701 74.5,75C 67.9069,83.3485 60.7403,91.1818 53,98.5C 49.1985,94.9016 45.8652,90.9016 43,86.5C 42.3333,85.5 42.3333,84.5 43,83.5C 46.5669,86.9774 49.9002,90.6441 53,94.5C 59.5072,87.4678 66.0072,80.4678 72.5,73.5 Z"/></g>
</svg>
