<?xml version="1.0" encoding="UTF-8"?>
<!DOCTYPE svg PUBLIC "-//W3C//DTD SVG 1.1//EN" "http://www.w3.org/Graphics/SVG/1.1/DTD/svg11.dtd">
<svg xmlns="http://www.w3.org/2000/svg" version="1.1" width="138px" height="138px" style="shape-rendering:geometricPrecision; text-rendering:geometricPrecision; image-rendering:optimizeQuality; fill-rule:evenodd; clip-rule:evenodd" xmlns:xlink="http://www.w3.org/1999/xlink">
<g><path style="opacity:1" fill="#f0eae6" d="M -0.5,-0.5 C 45.5,-0.5 91.5,-0.5 137.5,-0.5C 137.5,45.5 137.5,91.5 137.5,137.5C 91.5,137.5 45.5,137.5 -0.5,137.5C -0.5,91.5 -0.5,45.5 -0.5,-0.5 Z"/></g>
<g><path style="opacity:1" fill="#20201f" d="M 65.5,15.5 C 69.3169,14.8258 72.1503,16.1592 74,19.5C 74.1697,25.5275 74.6697,31.5275 75.5,37.5C 76.8333,38.1667 78.1667,38.8333 79.5,39.5C 80.7554,44.3399 80.7554,49.1732 79.5,54C 81.1377,57.442 82.6377,60.942 84,64.5C 84.6667,79.5 84.6667,94.5 84,109.5C 83.5,111.333 82.3333,112.5 80.5,113C 70.4738,117.012 60.9738,116.178 52,110.5C 51.3333,95.1667 51.3333,79.8333 52,64.5C 53.3623,60.942 54.8623,57.442 56.5,54C 55.2446,49.1732 55.2446,44.3399 56.5,39.5C 57.8498,38.0499 59.5165,37.3832 61.5,37.5C 61.3338,31.4908 61.5005,25.4908 62,19.5C 63.0319,17.9733 64.1986,16.64 65.5,15.5 Z"/></g>
<g><path style="opacity:1" fill="#e7e1dd" d="M 65.5,17.5 C 67.7224,17.178 69.5557,17.8446 71,19.5C 71.4995,25.4908 71.6662,31.4908 71.5,37.5C 68.8333,37.5 66.1667,37.5 63.5,37.5C 63.3339,31.8236 63.5006,26.1569 64,20.5C 64.5133,19.4734 65.0133,18.4734 65.5,17.5 Z"/></g>
<g><path style="opacity:1" fill="#c0bbb8" d="M 60.5,39.5 C 66.352,39.0506 72.0187,39.5506 77.5,41C 71.1347,42.8063 64.8014,42.8063 58.5,41C 59.4158,40.7216 60.0825,40.2216 60.5,39.5 Z"/></g>
<g><path style="opacity:1" fill="#e7e2de" d="M 58.5,43.5 C 64.8201,44.7876 71.1534,44.7876 77.5,43.5C 77.5,46.5 77.5,49.5 77.5,52.5C 71.4376,53.8753 65.4376,53.7087 59.5,52C 58.5562,49.2809 58.2229,46.4475 58.5,43.5 Z"/></g>
<g><path style="opacity:1" fill="#eae4e0" d="M 81.5,65.5 C 81.8288,78.6774 81.4955,91.6774 80.5,104.5C 73.9602,102.628 67.2935,102.128 60.5,103C 60.0426,103.414 59.7093,103.914 59.5,104.5C 66.1999,105.168 72.8666,106.001 79.5,107C 81.9556,108.913 81.6222,110.579 78.5,112C 72.8706,113.197 67.204,113.53 61.5,113C 58.5676,112.728 56.0676,111.562 54,109.5C 53.3333,94.8333 53.3333,80.1667 54,65.5C 54.829,61.8388 56.329,58.5054 58.5,55.5C 59.7757,54.3554 61.109,54.3554 62.5,55.5C 63.2047,67.8454 63.8714,80.1788 64.5,92.5C 62.7984,97.9673 64.7984,100.134 70.5,99C 72.8249,97.1781 73.1582,95.0115 71.5,92.5C 72.1286,80.1788 72.7953,67.8454 73.5,55.5C 75.306,54.1413 76.806,54.4746 78,56.5C 80.0496,59.1476 81.2163,62.1476 81.5,65.5 Z"/></g>
<g><path style="opacity:1" fill="#e3ddd9" d="M 66.5,55.5 C 67.8333,55.5 69.1667,55.5 70.5,55.5C 70.6994,69.5196 70.3661,83.5196 69.5,97.5C 68.5,97.5 67.5,97.5 66.5,97.5C 66.5,83.5 66.5,69.5 66.5,55.5 Z"/></g>
<g><path style="opacity:1" fill="#b0aca8" d="M 81.5,65.5 C 82.8254,78.6726 82.8254,92.0059 81.5,105.5C 80.8933,105.376 80.56,105.043 80.5,104.5C 81.4955,91.6774 81.8288,78.6774 81.5,65.5 Z"/></g>
</svg>
