<?xml version="1.0" encoding="UTF-8"?>
<!DOCTYPE svg PUBLIC "-//W3C//DTD SVG 1.1//EN" "http://www.w3.org/Graphics/SVG/1.1/DTD/svg11.dtd">
<svg xmlns="http://www.w3.org/2000/svg" version="1.1" width="162px" height="131px" style="shape-rendering:geometricPrecision; text-rendering:geometricPrecision; image-rendering:optimizeQuality; fill-rule:evenodd; clip-rule:evenodd" xmlns:xlink="http://www.w3.org/1999/xlink">
<g><path style="opacity:1" fill="#f0eae6" d="M -0.5,-0.5 C 53.5,-0.5 107.5,-0.5 161.5,-0.5C 161.5,43.1667 161.5,86.8333 161.5,130.5C 107.5,130.5 53.5,130.5 -0.5,130.5C -0.5,86.8333 -0.5,43.1667 -0.5,-0.5 Z"/></g>
<g><path style="opacity:1" fill="#242322" d="M 64.5,11.5 C 69.5592,11.7425 74.5592,12.4091 79.5,13.5C 82.3775,13.6144 85.0442,12.9477 87.5,11.5C 88.6265,13.2695 88.1265,14.6028 86,15.5C 84.7362,20.2136 85.7362,24.2136 89,27.5C 89.1786,30.5535 89.6786,33.5535 90.5,36.5C 97.1218,39.9507 101.288,45.2841 103,52.5C 103.833,71.1756 103.666,89.8423 102.5,108.5C 87.1847,112.111 71.8514,112.278 56.5,109C 55.3412,90.2401 55.1745,71.4068 56,52.5C 57.7502,45.253 61.9168,39.9197 68.5,36.5C 69.3214,33.5535 69.8214,30.5535 70,27.5C 73.1427,23.8718 74.3094,19.5385 73.5,14.5C 68.9594,13.7692 64.9594,14.7692 61.5,17.5C 60.4173,16.635 60.2506,15.635 61,14.5C 62.1451,13.3636 63.3117,12.3636 64.5,11.5 Z"/></g>
<g><path style="opacity:1" fill="#eae5e1" d="M 76.5,16.5 C 78.5,16.5 80.5,16.5 82.5,16.5C 82.5,19.5 82.5,22.5 82.5,25.5C 80.5,25.5 78.5,25.5 76.5,25.5C 76.5,22.5 76.5,19.5 76.5,16.5 Z"/></g>
<g><path style="opacity:1" fill="#e7e2de" d="M 72.5,27.5 C 76.8461,27.3343 81.1794,27.501 85.5,28C 86.7691,30.1385 86.7691,32.3052 85.5,34.5C 81.5,33.1667 77.5,33.1667 73.5,34.5C 72.5258,32.2573 72.1924,29.924 72.5,27.5 Z"/></g>
<g><path style="opacity:1" fill="#ede7e3" d="M 78.5,96.5 C 78.5,98.1667 78.5,99.8333 78.5,101.5C 73.5,101.5 68.5,101.5 63.5,101.5C 61.8561,101.714 60.3561,101.38 59,100.5C 58.3333,83.8333 58.3333,67.1667 59,50.5C 63.9096,39.2945 72.4096,34.7945 84.5,37C 91.9744,38.8247 97.141,43.3247 100,50.5C 100.5,69.4971 100.667,88.4971 100.5,107.5C 87.1993,108.611 73.8659,108.778 60.5,108C 58.8934,106.951 58.2267,105.451 58.5,103.5C 69.8069,104.577 81.1402,104.743 92.5,104C 93.8333,103.333 93.8333,102.667 92.5,102C 88.8484,101.501 85.1817,101.335 81.5,101.5C 81.5,91.5 81.5,81.5 81.5,71.5C 80.5,71.5 79.5,71.5 78.5,71.5C 78.6663,78.8409 78.4997,86.1742 78,93.5C 75.1213,92.0906 73.4546,89.7573 73,86.5C 71.5301,77.1052 73.8634,68.7718 80,61.5C 87.0599,69.1854 89.3932,78.1854 87,88.5C 86.1502,90.01 85.3169,91.51 84.5,93C 85.6479,94.726 86.8145,94.5593 88,92.5C 92.7554,79.185 90.0888,67.5184 80,57.5C 72.3828,65.7254 69.0494,75.3921 70,86.5C 71.2586,91.2524 74.0919,94.5857 78.5,96.5 Z"/></g>
<g><path style="opacity:1" fill="#928f8c" d="M 78.5,96.5 C 79.4614,98.2646 79.7947,100.265 79.5,102.5C 73.9738,102.821 68.6405,102.488 63.5,101.5C 68.5,101.5 73.5,101.5 78.5,101.5C 78.5,99.8333 78.5,98.1667 78.5,96.5 Z"/></g>
</svg>
