<?xml version="1.0" encoding="utf-8"?>
<!-- Generator: Adobe Illustrator 25.4.1, SVG Export Plug-In . SVG Version: 6.00 Build 0)  -->
<svg version="1.1" id="Layer_1" xmlns="http://www.w3.org/2000/svg" xmlns:xlink="http://www.w3.org/1999/xlink" x="0px" y="0px"
	 viewBox="0 0 311.9 325.6" style="enable-background:new 0 0 311.9 325.6;" xml:space="preserve">
<style type="text/css">
	.st0{fill:#f1ebe7;}
	.st1{fill:#010101;}
</style>
<g>
	<g>
		<g>
			<g>
				<path class="st0" d="M277.5,209c11.4-7,20.6-17.4,25.3-31.3c2.8-8.2,4.4-17.7,4.4-28.7c0-76.6-67.3-142.5-67.3-142.5
					s-14.5,13.8-30,36.4"/>
				<path class="st1" d="M280,213l-4.9-8c11.2-6.8,19.2-16.8,23.3-28.8c2.8-8.1,4.2-17.3,4.2-27.2c0-64.2-49.4-121.6-62.7-135.9
					c-5.1,5.3-15.4,16.7-26.1,32.3l-7.7-5.3c15.6-22.7,30-36.5,30.6-37.1L240,0l3.2,3.2c2.8,2.7,68.7,68.2,68.7,145.9
					c0,10.9-1.6,21.1-4.7,30.2C302.4,193.4,293,205.1,280,213z"/>
			</g>
			<g>
				<path class="st0" d="M63,223c0,15.2,2,28.2,5.4,39.4c9.5,30.9,34.9,49.6,63.8,56c44,9.8,96-8.8,111.8-55.5
					c3.9-11.3,6.1-24.6,6.1-40c0-106.6-93.6-198.3-93.6-198.3S97,81.5,72.9,159.9C66.8,179.8,63,201,63,223z"/>
				<path class="st1" d="M155.4,325.6c-8.2,0-16.4-0.9-24.1-2.6c-33.5-7.4-58-29-67.3-59.2c-3.8-12.2-5.6-26-5.6-40.8
					c0-20.9,3.4-42.6,10.1-64.4c24.2-78.7,82.5-134.9,85-137.3l3.3-3.1l3.2,3.2c3.9,3.8,95,94.3,95,201.7c0,15-2.1,29-6.4,41.5
					C234.3,306.5,193.8,325.6,155.4,325.6z M156.6,31.3c-12.7,13.1-59,64.1-79.2,130c-6.4,21-9.7,41.7-9.7,61.7
					c0,13.9,1.8,26.7,5.2,38.1c8.2,26.9,30.2,46.1,60.4,52.8c39.9,8.9,90.8-6.5,106.4-52.4c3.9-11.5,5.9-24.4,5.9-38.5
					C245.6,130.8,172.9,48.6,156.6,31.3z"/>
			</g>
			<g>
				<path class="st1" d="M236.8,3.3c-11.6,11.1-21.6,24.1-30.7,37.3c-1.4,2-0.4,4.9,1.6,6.1c2.2,1.3,4.7,0.4,6.1-1.6
					c8.6-12.5,18.2-24.9,29.3-35.5C247.2,5.7,240.9-0.6,236.8,3.3L236.8,3.3z"/>
			</g>
			<g>
				<path class="st1" d="M279.8,212.9c12.8-7.9,22.4-19.7,27.3-33.9c0.8-2.3-0.9-4.8-3.1-5.4c-2.4-0.7-4.7,0.8-5.4,3.1
					c-4.1,12-12.5,22-23.3,28.7c-2,1.3-2.8,4-1.6,6.1C274.9,213.3,277.7,214.1,279.8,212.9L279.8,212.9z"/>
			</g>
		</g>
		<g>
			<g>
				<path class="st0" d="M133.8,239.2c0.7,3.9,1.1,7.8,1.1,11.9c0,36-29.2,65.1-65.1,65.1c-36,0-65.1-29.2-65.1-65.1
					c0-36,29.2-65.1,65.1-65.1c6.4,0,12.6,0.9,18.5,2.7"/>
				<path class="st1" d="M69.8,320.8C31.3,320.8,0,289.5,0,251.1s31.3-69.8,69.8-69.8c6.7,0,13.4,1,19.8,2.9l-2.6,8.9
					c-5.5-1.6-11.3-2.5-17.2-2.5c-33.3,0-60.5,27.1-60.5,60.5c0,33.3,27.1,60.5,60.5,60.5c33.3,0,60.5-27.1,60.5-60.5
					c0-3.7-0.3-7.4-1-11l9.2-1.7c0.8,4.2,1.2,8.5,1.2,12.7C139.6,289.5,108.3,320.8,69.8,320.8z"/>
			</g>
			<g>
				<path class="st1" d="M31.4,239c10.7,13.2,21.4,26.4,32.1,39.6c1.5,1.8,4.8,1.6,6.3,0c19.2-21.2,38.3-42.4,57.5-63.6
					c2.8-3,5.5-6.1,8.3-9.1c3.8-4.2-2.4-10.5-6.3-6.3c-19.2,21.2-38.3,42.4-57.5,63.6c-2.8,3-5.5,6.1-8.3,9.1c2.1,0,4.2,0,6.3,0
					C59,259.2,48.3,246,37.6,232.8C34,228.3,27.8,234.6,31.4,239L31.4,239z"/>
			</g>
			<g>
				<path class="st1" d="M69.8,190.4c1.5,0,3.1,0.1,4.6,0.2c0.8,0.1,1.6,0.1,2.4,0.2c0.3,0,0.7,0.1,1,0.1c0.5,0.1,0.5,0.1-0.1,0
					c0.2,0,0.3,0,0.5,0.1c3,0.4,6,1.1,8.9,2c2.2,0.7,4.9-0.8,5.4-3.1c0.5-2.4-0.7-4.8-3.1-5.4c-6.4-1.9-13-2.8-19.7-2.8
					c-2.3,0-4.5,2-4.4,4.4C65.5,188.3,67.3,190.3,69.8,190.4L69.8,190.4z"/>
			</g>
			<g>
				<path class="st1" d="M129.6,240.4c0.2,1,0.3,2,0.5,3.1c-0.1-0.4-0.1-0.8-0.2-1.2c0.4,2.9,0.6,5.9,0.6,8.8c0,2.3,2,4.5,4.4,4.4
					c2.4-0.1,4.4-1.9,4.4-4.4c0-4.4-0.5-8.7-1.2-13.1c-0.2-1-1.2-2.1-2-2.6c-0.9-0.6-2.3-0.8-3.4-0.4c-1.1,0.3-2.1,1-2.6,2
					C129.4,238,129.3,239.1,129.6,240.4L129.6,240.4z"/>
			</g>
		</g>
	</g>
</g>
</svg>
