<?xml version="1.0" encoding="utf-8"?>
<!-- Generator: Adobe Illustrator 25.4.1, SVG Export Plug-In . SVG Version: 6.00 Build 0)  -->
<svg version="1.1" id="Layer_1" xmlns="http://www.w3.org/2000/svg" xmlns:xlink="http://www.w3.org/1999/xlink" x="0px" y="0px"
	 viewBox="0 0 335.2 335.2" style="enable-background:new 0 0 335.2 335.2;" xml:space="preserve">
<style type="text/css">
	.st0{fill:#010101;}
	.st1{fill:#f1ebe7;}
</style>
<g>
	<g>
		<g>
			<g>
				<path class="st0" d="M167.6,335.2c-46.9,0-92-19.9-123.7-54.5l6.9-6.3c29.9,32.7,72.5,51.5,116.8,51.5
					c87.3,0,158.3-71,158.3-158.3c0-27.9-7.3-55.3-21.2-79.2l8.1-4.7c14.7,25.4,22.5,54.4,22.5,83.9
					C335.2,260,260,335.2,167.6,335.2z"/>
			</g>
			<g>
				<g>
					<path class="st0" d="M52.6,310.4c-1.1-9.9-2.2-19.8-3.3-29.6c-0.2-1.4-0.3-2.8-0.5-4.3c-0.3-2.4-1.8-4.4-4.4-4.4
						c-2.2,0-4.7,2-4.4,4.4c1.1,9.9,2.2,19.8,3.3,29.6c0.2,1.4,0.3,2.8,0.5,4.3c0.3,2.4,1.8,4.4,4.4,4.4
						C50.4,314.8,52.9,312.8,52.6,310.4L52.6,310.4z"/>
				</g>
				<g>
					<path class="st0" d="M78.5,271c-9.9,0.3-19.9,0.6-29.8,0.9c-1.4,0-2.9,0.1-4.3,0.1c-2.4,0.1-4.4,2-4.4,4.4c0,2.3,2,4.5,4.4,4.4
						c9.9-0.3,19.9-0.6,29.8-0.9c1.4,0,2.9-0.1,4.3-0.1c2.4-0.1,4.4-2,4.4-4.4C83,273.1,80.9,271,78.5,271L78.5,271z"/>
				</g>
			</g>
			<g>
				<path class="st0" d="M304.9,88.3c13.9,24.2,21.1,51.4,21.3,79.3c0,5.7,8.9,5.7,8.9,0c-0.1-29.4-7.8-58.3-22.5-83.8
					C309.7,78.9,302,83.3,304.9,88.3L304.9,88.3z"/>
			</g>
		</g>
		<g>
			<g>
				<path class="st0" d="M27.4,259.5C9.5,232.2,0,200.4,0,167.6C0,75.2,75.2,0,167.6,0c41.8,0,81.8,15.5,112.7,43.6
					c5.7,5.2,11.2,10.9,16.1,16.9l-7.2,6c-4.7-5.6-9.8-11-15.2-15.9c-29.2-26.5-67-41.1-106.5-41.1C80.3,9.3,9.3,80.3,9.3,167.6
					c0,31,8.9,60.9,25.8,86.7L27.4,259.5z"/>
			</g>
			<g>
				<g>
					<path class="st0" d="M284.7,29.5c1.1,9.9,2.2,19.8,3.3,29.6c0.2,1.4,0.3,2.8,0.5,4.3c0.3,2.4,1.8,4.4,4.4,4.4
						c2.2,0,4.7-2,4.4-4.4c-1.1-9.9-2.2-19.8-3.3-29.6c-0.2-1.4-0.3-2.8-0.5-4.3c-0.3-2.4-1.8-4.4-4.4-4.4
						C287,25.1,284.5,27.1,284.7,29.5L284.7,29.5z"/>
				</g>
				<g>
					<path class="st0" d="M258.8,68.9c9.9-0.3,19.9-0.6,29.8-0.9c1.4,0,2.9-0.1,4.3-0.1c2.4-0.1,4.4-2,4.4-4.4c0-2.3-2-4.5-4.4-4.4
						c-9.9,0.3-19.9,0.6-29.8,0.9c-1.4,0-2.9,0.1-4.3,0.1c-2.4,0.1-4.4,2-4.4,4.4C254.4,66.8,256.4,68.9,258.8,68.9L258.8,68.9z"/>
				</g>
			</g>
			<g>
				<path class="st0" d="M35.1,254.7c-16.9-26-25.9-56-26-87c0-5.7-8.9-5.7-8.9,0c0.2,32.5,9.5,64.3,27.2,91.5
					C30.5,263.9,38.2,259.5,35.1,254.7L35.1,254.7z"/>
			</g>
		</g>
	</g>
	<g>
		<g>
			<path class="st1" d="M233.1,193.5c7-4.3,12.7-10.8,15.6-19.4c1.7-5,2.7-10.9,2.7-17.8c0-47.4-41.6-88.2-41.6-88.2
				s-8.9,8.5-18.5,22.5"/>
			<path class="st0" d="M235.5,197.5l-4.9-8c6.5-4,11.3-9.8,13.7-16.9c1.6-4.8,2.5-10.3,2.5-16.3c0-37.2-27.5-70.9-37-81.4
				c-3.4,3.6-8.9,10-14.6,18.4l-7.7-5.3c9.8-14.2,18.8-22.9,19.2-23.2l3.3-3.1l3.2,3.2c1.8,1.7,43,42.7,43,91.5c0,7-1,13.4-3,19.3
				C250,184.8,243.9,192.3,235.5,197.5z"/>
		</g>
		<g>
			<path class="st1" d="M100.4,202.2c0,9.4,1.2,17.4,3.4,24.4c14.8,48.3,92.4,48.2,108.7,0.3c2.4-7,3.8-15.2,3.8-24.7
				c0-65.9-57.9-122.7-57.9-122.7S100.4,134.7,100.4,202.2z"/>
			<path class="st0" d="M157.7,267.4c-0.4,0-0.8,0-1.2,0c-27.5-0.4-50-15.9-57.2-39.5c-2.4-7.7-3.6-16.4-3.6-25.8
				c0-68.7,56.9-123.7,59.4-126.1l3.3-3.1l3.2,3.2c2.4,2.4,59.3,58.9,59.3,126c0,9.5-1.4,18.3-4.1,26.2
				C208.7,252.2,185.6,267.4,157.7,267.4z M158.3,86.2c-12,12.8-53.2,60.5-53.2,116c0,8.4,1.1,16.2,3.2,23c6,19.6,25,32.6,48.5,32.9
				c18.5,0.2,43-8.1,51.3-32.7c2.4-6.9,3.6-14.7,3.6-23.2C211.6,147.9,170.3,99.2,158.3,86.2z"/>
		</g>
		<g>
			<path class="st0" d="M206.7,65.1c-7.3,6.9-13.5,15.1-19.2,23.4c-1.3,1.9-0.4,5,1.6,6.1c2.3,1.2,4.7,0.5,6.1-1.6
				c1.1-1.7,2.3-3.3,3.5-4.9c0.6-0.8,1.1-1.5,1.7-2.3c0.3-0.4,0.3-0.4,0,0c0.2-0.2,0.3-0.4,0.5-0.6c0.2-0.3,0.5-0.6,0.7-0.9
				c1.9-2.4,3.9-4.7,5.9-7c1.8-2,3.6-4,5.6-5.9c1.7-1.6,1.7-4.7,0-6.3C211.2,63.4,208.5,63.4,206.7,65.1L206.7,65.1z"/>
		</g>
		<g>
			<path class="st0" d="M235.3,197.3c8.3-5.1,14.5-12.8,17.7-22c0.8-2.2-0.9-4.9-3.1-5.4c-2.5-0.6-4.6,0.7-5.4,3.1
				c-0.2,0.5-0.4,1.1-0.6,1.6c-0.1,0.2-0.2,0.5-0.3,0.7c0.2-0.5,0.3-0.6,0-0.1c-0.4,1-0.9,1.9-1.4,2.8c-0.5,0.9-1.1,1.8-1.6,2.6
				c-0.3,0.4-0.6,0.8-0.8,1.2c-0.3,0.4,0.6-0.7,0.1-0.1c-0.2,0.2-0.4,0.5-0.5,0.7c-1.3,1.5-2.6,2.9-4.1,4.2c-0.4,0.3-0.8,0.7-1.2,1
				c-0.6,0.5,0.6-0.4,0.1-0.1c-0.2,0.1-0.4,0.3-0.6,0.4c-0.8,0.6-1.7,1.2-2.6,1.7c-2,1.2-2.9,4-1.6,6.1
				C230.5,197.7,233.2,198.6,235.3,197.3L235.3,197.3z"/>
		</g>
	</g>
</g>
</svg>
